<mxfile host="app.diagrams.net" modified="2024-07-12T13:25:57.609Z" agent="Mozilla/5.0 (Windows NT 10.0; Win64; x64) AppleWebKit/537.36 (KHTML, like Gecko) Chrome/126.0.0.0 Safari/537.36" version="24.4.14" etag="3h-vLTm-X9x4rJUnMlMw" type="github">
  <diagram name="Страница — 1" id="FR18lXaDPZ_uThodct_a">
    <mxGraphModel>
      <root>
        <mxCell id="0" />
        <mxCell id="1" parent="0" />
      </root>
    </mxGraphModel>
  </diagram>
</mxfile>
